<mxfile host="app.diagrams.net" agent="Mozilla/5.0 (Windows NT 10.0; Win64; x64; rv:131.0) Gecko/20100101 Firefox/131.0" version="24.7.17" pages="3">
  <diagram name="Page-1" id="VoJw-NflkOjj5ZJhAXec">
    <mxGraphModel dx="880" dy="422" grid="1" gridSize="10" guides="1" tooltips="1" connect="1" arrows="1" fold="1" page="1" pageScale="1" pageWidth="850" pageHeight="1100" math="0" shadow="0">
      <root>
        <mxCell id="0" />
        <mxCell id="1" parent="0" />
        <mxCell id="fIKoYiJk8OIai4AO7cgT-3" value="" style="edgeStyle=orthogonalEdgeStyle;rounded=0;orthogonalLoop=1;jettySize=auto;html=1;" edge="1" parent="1" source="fIKoYiJk8OIai4AO7cgT-1" target="fIKoYiJk8OIai4AO7cgT-2">
          <mxGeometry relative="1" as="geometry" />
        </mxCell>
        <mxCell id="fIKoYiJk8OIai4AO7cgT-1" value="START" style="rounded=1;whiteSpace=wrap;html=1;" vertex="1" parent="1">
          <mxGeometry x="390" y="170" width="120" height="60" as="geometry" />
        </mxCell>
        <mxCell id="fIKoYiJk8OIai4AO7cgT-5" value="" style="edgeStyle=orthogonalEdgeStyle;rounded=0;orthogonalLoop=1;jettySize=auto;html=1;" edge="1" parent="1" source="fIKoYiJk8OIai4AO7cgT-2" target="fIKoYiJk8OIai4AO7cgT-4">
          <mxGeometry relative="1" as="geometry" />
        </mxCell>
        <mxCell id="fIKoYiJk8OIai4AO7cgT-2" value="nilai awal pada seven segment diatur menjadi 0" style="shape=parallelogram;perimeter=parallelogramPerimeter;whiteSpace=wrap;html=1;fixedSize=1;rounded=1;" vertex="1" parent="1">
          <mxGeometry x="390" y="310" width="120" height="60" as="geometry" />
        </mxCell>
        <mxCell id="fIKoYiJk8OIai4AO7cgT-7" value="" style="edgeStyle=orthogonalEdgeStyle;rounded=0;orthogonalLoop=1;jettySize=auto;html=1;" edge="1" parent="1" source="fIKoYiJk8OIai4AO7cgT-4" target="fIKoYiJk8OIai4AO7cgT-6">
          <mxGeometry relative="1" as="geometry" />
        </mxCell>
        <mxCell id="fIKoYiJk8OIai4AO7cgT-4" value="angka pada seven segment ditampilkan sesuai dengan nilai yang ada." style="shape=display;whiteSpace=wrap;html=1;" vertex="1" parent="1">
          <mxGeometry x="382.5" y="420" width="135" height="80" as="geometry" />
        </mxCell>
        <mxCell id="fIKoYiJk8OIai4AO7cgT-9" value="" style="edgeStyle=orthogonalEdgeStyle;rounded=0;orthogonalLoop=1;jettySize=auto;html=1;" edge="1" parent="1" source="fIKoYiJk8OIai4AO7cgT-6" target="fIKoYiJk8OIai4AO7cgT-8">
          <mxGeometry relative="1" as="geometry" />
        </mxCell>
        <mxCell id="fIKoYiJk8OIai4AO7cgT-6" value="nilai seven segment ditambah 1" style="whiteSpace=wrap;html=1;" vertex="1" parent="1">
          <mxGeometry x="390" y="590" width="120" height="60" as="geometry" />
        </mxCell>
        <mxCell id="fIKoYiJk8OIai4AO7cgT-11" value="" style="edgeStyle=orthogonalEdgeStyle;rounded=0;orthogonalLoop=1;jettySize=auto;html=1;" edge="1" parent="1" source="fIKoYiJk8OIai4AO7cgT-8" target="fIKoYiJk8OIai4AO7cgT-10">
          <mxGeometry relative="1" as="geometry" />
        </mxCell>
        <mxCell id="fIKoYiJk8OIai4AO7cgT-8" value="apakah nilai &amp;gt; 9" style="rhombus;whiteSpace=wrap;html=1;" vertex="1" parent="1">
          <mxGeometry x="400" y="720" width="100" height="90" as="geometry" />
        </mxCell>
        <mxCell id="fIKoYiJk8OIai4AO7cgT-10" value="END" style="rounded=1;whiteSpace=wrap;html=1;" vertex="1" parent="1">
          <mxGeometry x="390" y="905" width="120" height="60" as="geometry" />
        </mxCell>
      </root>
    </mxGraphModel>
  </diagram>
  <diagram id="eG1ZTqDy2E6IIxppEJPe" name="Page-2">
    <mxGraphModel dx="880" dy="422" grid="1" gridSize="10" guides="1" tooltips="1" connect="1" arrows="1" fold="1" page="1" pageScale="1" pageWidth="850" pageHeight="1100" math="0" shadow="0">
      <root>
        <mxCell id="0" />
        <mxCell id="1" parent="0" />
        <mxCell id="dvwCaunr6A2sc1vKdRJg-5" value="" style="edgeStyle=orthogonalEdgeStyle;rounded=0;orthogonalLoop=1;jettySize=auto;html=1;" edge="1" parent="1" source="dvwCaunr6A2sc1vKdRJg-1" target="dvwCaunr6A2sc1vKdRJg-4">
          <mxGeometry relative="1" as="geometry" />
        </mxCell>
        <mxCell id="dvwCaunr6A2sc1vKdRJg-1" value="START" style="rounded=1;whiteSpace=wrap;html=1;" vertex="1" parent="1">
          <mxGeometry x="360" y="190" width="120" height="60" as="geometry" />
        </mxCell>
        <mxCell id="k4ADxQlh0pAvILffFITT-2" value="" style="edgeStyle=orthogonalEdgeStyle;rounded=0;orthogonalLoop=1;jettySize=auto;html=1;" edge="1" parent="1" source="dvwCaunr6A2sc1vKdRJg-4" target="k4ADxQlh0pAvILffFITT-1">
          <mxGeometry relative="1" as="geometry" />
        </mxCell>
        <mxCell id="dvwCaunr6A2sc1vKdRJg-4" value="nilai pada seven segment diatur menjadi 20 " style="shape=parallelogram;perimeter=parallelogramPerimeter;whiteSpace=wrap;html=1;fixedSize=1;rounded=1;" vertex="1" parent="1">
          <mxGeometry x="360" y="330" width="120" height="60" as="geometry" />
        </mxCell>
        <mxCell id="k4ADxQlh0pAvILffFITT-4" value="" style="edgeStyle=orthogonalEdgeStyle;rounded=0;orthogonalLoop=1;jettySize=auto;html=1;" edge="1" parent="1" source="k4ADxQlh0pAvILffFITT-1" target="k4ADxQlh0pAvILffFITT-3">
          <mxGeometry relative="1" as="geometry" />
        </mxCell>
        <mxCell id="k4ADxQlh0pAvILffFITT-1" value="angka pada seven segment ditampilkan sesuai dengan nilai yang ada " style="shape=display;whiteSpace=wrap;html=1;" vertex="1" parent="1">
          <mxGeometry x="345" y="430" width="150" height="90" as="geometry" />
        </mxCell>
        <mxCell id="k4ADxQlh0pAvILffFITT-6" value="" style="edgeStyle=orthogonalEdgeStyle;rounded=0;orthogonalLoop=1;jettySize=auto;html=1;" edge="1" parent="1" source="k4ADxQlh0pAvILffFITT-3" target="k4ADxQlh0pAvILffFITT-5">
          <mxGeometry relative="1" as="geometry" />
        </mxCell>
        <mxCell id="k4ADxQlh0pAvILffFITT-3" value="nilai pada seven segment dikurang 1" style="whiteSpace=wrap;html=1;" vertex="1" parent="1">
          <mxGeometry x="360" y="615" width="120" height="60" as="geometry" />
        </mxCell>
        <mxCell id="k4ADxQlh0pAvILffFITT-10" value="" style="edgeStyle=orthogonalEdgeStyle;rounded=0;orthogonalLoop=1;jettySize=auto;html=1;" edge="1" parent="1" source="k4ADxQlh0pAvILffFITT-5" target="k4ADxQlh0pAvILffFITT-9">
          <mxGeometry relative="1" as="geometry" />
        </mxCell>
        <mxCell id="k4ADxQlh0pAvILffFITT-5" value="apakah nilai &amp;gt; 0?" style="rhombus;whiteSpace=wrap;html=1;" vertex="1" parent="1">
          <mxGeometry x="370" y="745" width="100" height="95" as="geometry" />
        </mxCell>
        <mxCell id="k4ADxQlh0pAvILffFITT-9" value="END" style="rounded=1;whiteSpace=wrap;html=1;" vertex="1" parent="1">
          <mxGeometry x="360" y="937.5" width="120" height="60" as="geometry" />
        </mxCell>
      </root>
    </mxGraphModel>
  </diagram>
  <diagram id="HTyrPi-Whjk_YCgT4G5M" name="Page-3">
    <mxGraphModel dx="880" dy="422" grid="1" gridSize="10" guides="1" tooltips="1" connect="1" arrows="1" fold="1" page="1" pageScale="1" pageWidth="850" pageHeight="1100" math="0" shadow="0">
      <root>
        <mxCell id="0" />
        <mxCell id="1" parent="0" />
        <mxCell id="PZZ8oByq3PF3k6W48uKL-2" value="" style="edgeStyle=orthogonalEdgeStyle;rounded=0;orthogonalLoop=1;jettySize=auto;html=1;" edge="1" parent="1" source="95gcDYUKjAawWrb2zK56-1" target="PZZ8oByq3PF3k6W48uKL-1">
          <mxGeometry relative="1" as="geometry" />
        </mxCell>
        <mxCell id="95gcDYUKjAawWrb2zK56-1" value="START" style="rounded=1;whiteSpace=wrap;html=1;" vertex="1" parent="1">
          <mxGeometry x="360" y="190" width="120" height="60" as="geometry" />
        </mxCell>
        <mxCell id="PZZ8oByq3PF3k6W48uKL-8" value="" style="edgeStyle=orthogonalEdgeStyle;rounded=0;orthogonalLoop=1;jettySize=auto;html=1;" edge="1" parent="1" source="PZZ8oByq3PF3k6W48uKL-1" target="PZZ8oByq3PF3k6W48uKL-7">
          <mxGeometry relative="1" as="geometry" />
        </mxCell>
        <mxCell id="PZZ8oByq3PF3k6W48uKL-1" value="nilai awal pada seven segment diatur menjadi 0" style="shape=parallelogram;perimeter=parallelogramPerimeter;whiteSpace=wrap;html=1;fixedSize=1;rounded=1;" vertex="1" parent="1">
          <mxGeometry x="360" y="330" width="120" height="60" as="geometry" />
        </mxCell>
        <mxCell id="PZZ8oByq3PF3k6W48uKL-12" value="" style="edgeStyle=orthogonalEdgeStyle;rounded=0;orthogonalLoop=1;jettySize=auto;html=1;" edge="1" parent="1" source="PZZ8oByq3PF3k6W48uKL-7" target="PZZ8oByq3PF3k6W48uKL-11">
          <mxGeometry relative="1" as="geometry" />
        </mxCell>
        <mxCell id="PZZ8oByq3PF3k6W48uKL-7" value="menekan button" style="ellipse;whiteSpace=wrap;html=1;rounded=1;" vertex="1" parent="1">
          <mxGeometry x="380" y="460" width="80" height="80" as="geometry" />
        </mxCell>
        <mxCell id="PZZ8oByq3PF3k6W48uKL-14" value="" style="edgeStyle=orthogonalEdgeStyle;rounded=0;orthogonalLoop=1;jettySize=auto;html=1;" edge="1" parent="1" source="PZZ8oByq3PF3k6W48uKL-11" target="PZZ8oByq3PF3k6W48uKL-13">
          <mxGeometry relative="1" as="geometry" />
        </mxCell>
        <mxCell id="PZZ8oByq3PF3k6W48uKL-11" value="angka pada seven segment ditampilkan sesuai dengan nilai yang ada" style="shape=display;whiteSpace=wrap;html=1;" vertex="1" parent="1">
          <mxGeometry x="355" y="630" width="130" height="80" as="geometry" />
        </mxCell>
        <mxCell id="PZZ8oByq3PF3k6W48uKL-16" value="" style="edgeStyle=orthogonalEdgeStyle;rounded=0;orthogonalLoop=1;jettySize=auto;html=1;" edge="1" parent="1" source="PZZ8oByq3PF3k6W48uKL-13" target="PZZ8oByq3PF3k6W48uKL-15">
          <mxGeometry relative="1" as="geometry" />
        </mxCell>
        <mxCell id="PZZ8oByq3PF3k6W48uKL-13" value="nilai pada seven segment dikurang 1" style="whiteSpace=wrap;html=1;" vertex="1" parent="1">
          <mxGeometry x="360" y="800" width="120" height="60" as="geometry" />
        </mxCell>
        <mxCell id="PZZ8oByq3PF3k6W48uKL-18" value="" style="edgeStyle=orthogonalEdgeStyle;rounded=0;orthogonalLoop=1;jettySize=auto;html=1;" edge="1" parent="1" source="PZZ8oByq3PF3k6W48uKL-15" target="PZZ8oByq3PF3k6W48uKL-17">
          <mxGeometry relative="1" as="geometry" />
        </mxCell>
        <mxCell id="PZZ8oByq3PF3k6W48uKL-15" value="apakah nilai &amp;gt;0?" style="rhombus;whiteSpace=wrap;html=1;" vertex="1" parent="1">
          <mxGeometry x="365" y="930" width="110" height="90" as="geometry" />
        </mxCell>
        <mxCell id="PZZ8oByq3PF3k6W48uKL-20" value="" style="edgeStyle=orthogonalEdgeStyle;rounded=0;orthogonalLoop=1;jettySize=auto;html=1;" edge="1" parent="1" source="PZZ8oByq3PF3k6W48uKL-17" target="PZZ8oByq3PF3k6W48uKL-19">
          <mxGeometry relative="1" as="geometry" />
        </mxCell>
        <mxCell id="PZZ8oByq3PF3k6W48uKL-17" value="menekan tombol" style="ellipse;whiteSpace=wrap;html=1;" vertex="1" parent="1">
          <mxGeometry x="380" y="1105" width="80" height="80" as="geometry" />
        </mxCell>
        <mxCell id="PZZ8oByq3PF3k6W48uKL-19" value="" style="rounded=1;whiteSpace=wrap;html=1;" vertex="1" parent="1">
          <mxGeometry x="360" y="1275" width="120" height="60" as="geometry" />
        </mxCell>
      </root>
    </mxGraphModel>
  </diagram>
</mxfile>
